<?xml version="1.0" encoding="UTF-8"?>
<svg xmlns="http://www.w3.org/2000/svg" xmlns:xlink="http://www.w3.org/1999/xlink" width="107px" height="64px" viewBox="0 0 107 64" version="1.1">
<g id="surface1">
<path style=" stroke:none;fill-rule:nonzero;fill:rgb(0%,0%,0%);fill-opacity:1;" d="M 59.53125 1.898438 C 55.738281 2.445312 52.730469 5.382812 52.320312 8.941406 L 52.21875 9.761719 L 51.757812 9.246094 C 49.707031 7.007812 45.761719 9.761719 46.222656 13.09375 C 46.597656 15.742188 48.683594 17.792969 52.183594 18.957031 C 53.636719 19.453125 54.21875 19.539062 55.976562 19.625 C 57.242188 19.675781 58.503906 19.625 59.136719 19.503906 C 60.28125 19.28125 62.246094 18.632812 62.109375 18.511719 C 62.074219 18.460938 61.253906 18.5625 60.28125 18.734375 C 56.046875 19.4375 51.347656 18.273438 48.957031 15.929688 C 46.992188 14.015625 46.855469 11.351562 48.683594 10.136719 C 49.347656 9.675781 50.902344 9.605469 51.585938 10 C 52.21875 10.359375 52.390625 10.308594 52.507812 9.691406 C 52.816406 8.121094 54.421875 5.761719 56.011719 4.582031 C 60.351562 1.300781 66.292969 2.785156 68.789062 7.777344 C 69.523438 9.246094 69.539062 9.28125 69.4375 8.546875 C 69.285156 7.402344 68.464844 5.761719 67.523438 4.769531 C 65.472656 2.546875 62.449219 1.46875 59.53125 1.898438 Z M 59.53125 1.898438 "/>
<path style=" stroke:none;fill-rule:nonzero;fill:rgb(0%,0%,0%);fill-opacity:1;" d="M 57.273438 8.496094 C 57.53125 8.53125 57.90625 8.53125 58.128906 8.496094 C 58.335938 8.460938 58.128906 8.425781 57.652344 8.425781 C 57.191406 8.425781 57 8.460938 57.273438 8.496094 Z M 57.273438 8.496094 "/>
<path style=" stroke:none;fill-rule:nonzero;fill:rgb(0%,0%,0%);fill-opacity:1;" d="M 58.933594 8.71875 C 59.070312 8.804688 59.273438 8.890625 59.359375 8.890625 C 59.460938 8.890625 59.410156 8.804688 59.273438 8.71875 C 59.136719 8.632812 58.949219 8.546875 58.847656 8.546875 C 58.761719 8.546875 58.796875 8.632812 58.933594 8.71875 Z M 58.933594 8.71875 "/>
<path style=" stroke:none;fill-rule:nonzero;fill:rgb(0%,0%,0%);fill-opacity:1;" d="M 60.042969 9.28125 C 60.519531 9.640625 62.023438 11.164062 63.441406 12.769531 C 63.800781 13.179688 64.175781 13.453125 64.277344 13.382812 C 64.363281 13.332031 64.398438 13.367188 64.347656 13.453125 C 64.109375 13.828125 67.269531 16.222656 67.660156 15.964844 C 67.78125 15.898438 67.832031 15.914062 67.761719 16.015625 C 67.660156 16.1875 68.992188 16.871094 70.855469 17.589844 C 72.289062 18.152344 72.101562 18.015625 70.121094 17.027344 C 69.09375 16.511719 68.191406 16.136719 68.105469 16.1875 C 68.003906 16.238281 67.984375 16.207031 68.035156 16.121094 C 68.105469 16.015625 67.59375 15.574219 66.910156 15.128906 C 66.242188 14.667969 65.253906 13.898438 64.722656 13.382812 C 64.191406 12.890625 63.714844 12.53125 63.628906 12.617188 C 63.542969 12.683594 63.542969 12.648438 63.59375 12.546875 C 63.765625 12.257812 60.144531 8.871094 59.683594 8.890625 C 59.597656 8.890625 59.769531 9.078125 60.042969 9.28125 Z M 65.933594 14.699219 C 65.933594 14.957031 65.851562 14.90625 65.492188 14.511719 C 65.167969 14.136719 65.167969 14.136719 65.558594 14.34375 C 65.765625 14.445312 65.933594 14.617188 65.933594 14.699219 Z M 65.933594 14.699219 "/>
<path style=" stroke:none;fill-rule:nonzero;fill:rgb(0%,0%,0%);fill-opacity:1;" d="M 70.359375 10.136719 C 69.335938 10.480469 67.917969 11.28125 68.054688 11.417969 C 68.085938 11.453125 68.601562 11.300781 69.199219 11.09375 C 70.820312 10.53125 73.09375 10.460938 74.597656 10.90625 C 76.75 11.574219 78.644531 13.300781 79.445312 15.332031 C 79.753906 16.121094 79.839844 16.667969 79.855469 17.949219 C 79.855469 19.4375 79.804688 19.675781 79.308594 20.734375 C 78.03125 23.417969 75.175781 25.128906 71.929688 25.128906 C 70.597656 25.128906 68.550781 24.582031 67.097656 23.847656 C 66.429688 23.503906 65.867188 23.265625 65.816406 23.300781 C 65.664062 23.453125 67.078125 24.480469 68.242188 25.058594 C 72.375 27.109375 77.378906 25.929688 79.773438 22.359375 C 81.890625 19.179688 81.546875 15.246094 78.882812 12.375 C 76.695312 10.050781 73.261719 9.144531 70.359375 10.136719 Z M 70.359375 10.136719 "/>
<path style=" stroke:none;fill-rule:nonzero;fill:rgb(0%,0%,0%);fill-opacity:1;" d="M 72.085938 18.015625 C 72.085938 18.050781 72.203125 18.121094 72.339844 18.1875 C 72.476562 18.238281 72.597656 18.207031 72.597656 18.121094 C 72.597656 18.015625 72.476562 17.949219 72.339844 17.949219 C 72.203125 17.949219 72.085938 17.984375 72.085938 18.015625 Z M 72.085938 18.015625 "/>
<path style=" stroke:none;fill-rule:nonzero;fill:rgb(0%,0%,0%);fill-opacity:1;" d="M 52.117188 20.71875 C 51.570312 22.152344 50.714844 23.554688 49.707031 24.667969 C 48.921875 25.539062 48.886719 25.589844 49.109375 26.085938 C 49.433594 26.855469 50.355469 27.847656 51.058594 28.171875 C 51.570312 28.394531 52.320312 28.445312 55.515625 28.460938 C 58.609375 28.480469 59.582031 28.546875 60.46875 28.785156 C 62.160156 29.246094 63.40625 30 64.773438 31.382812 C 65.457031 32.085938 66.054688 32.648438 66.125 32.648438 C 66.175781 32.648438 66.363281 32.1875 66.535156 31.605469 C 66.824219 30.683594 67.507812 29.351562 68.394531 27.984375 C 68.703125 27.519531 68.703125 27.519531 68.34375 27.519531 C 67.816406 27.519531 66.566406 28.734375 66.105469 29.726562 L 65.714844 30.582031 L 64.792969 29.742188 C 63.75 28.785156 62.261719 28 60.640625 27.574219 C 59.699219 27.316406 58.933594 27.28125 55.753906 27.316406 C 52.355469 27.367188 51.910156 27.332031 51.226562 27.042969 C 50.816406 26.855469 50.289062 26.511719 50.066406 26.273438 L 49.65625 25.828125 L 50.542969 24.855469 C 51.039062 24.324219 51.570312 23.605469 51.757812 23.265625 C 52.21875 22.34375 52.644531 20.769531 52.578125 20.171875 C 52.527344 19.691406 52.492188 19.726562 52.117188 20.71875 Z M 52.117188 20.71875 "/>
<path style=" stroke:none;fill-rule:nonzero;fill:rgb(0%,0%,0%);fill-opacity:1;" d="M 56.199219 20.597656 C 56.675781 21.109375 57.546875 21.625 57.703125 21.46875 C 57.753906 21.417969 57.703125 21.367188 57.601562 21.367188 C 57.496094 21.367188 57.054688 21.09375 56.589844 20.753906 C 55.925781 20.238281 55.855469 20.207031 56.199219 20.597656 Z M 56.199219 20.597656 "/>
<path style=" stroke:none;fill-rule:nonzero;fill:rgb(0%,0%,0%);fill-opacity:1;" d="M 61.238281 21.554688 C 58.914062 21.792969 59.085938 21.863281 61.835938 21.777344 C 65.285156 21.65625 67.078125 21.914062 70.703125 23.027344 C 71.640625 23.300781 70.238281 22.699219 68.925781 22.257812 C 66.3125 21.367188 64.585938 21.214844 61.238281 21.554688 Z M 61.238281 21.554688 "/>
<path style=" stroke:none;fill-rule:nonzero;fill:rgb(0%,0%,0%);fill-opacity:1;" d="M 71.078125 23.144531 C 71.109375 23.179688 71.332031 23.300781 71.574219 23.402344 C 71.984375 23.589844 71.984375 23.589844 71.675781 23.351562 C 71.402344 23.128906 70.839844 22.941406 71.078125 23.144531 Z M 71.078125 23.144531 "/>
<path style=" stroke:none;fill-rule:nonzero;fill:rgb(0%,0%,0%);fill-opacity:1;" d="M 16.449219 29.488281 C 14.605469 30 12.707031 31.230469 11.136719 32.890625 C 10.078125 34.015625 9.035156 35.8125 8.8125 36.871094 C 8.59375 37.898438 8.675781 39.28125 9.019531 40.035156 C 9.410156 40.90625 10.128906 41.625 10.4375 41.453125 C 10.554688 41.367188 10.609375 41.382812 10.523438 41.503906 C 10.386719 41.742188 11.460938 42.085938 12.316406 42.085938 C 14.382812 42.050781 16.738281 39.726562 16.738281 37.691406 C 16.738281 36.582031 16.210938 36.070312 15.082031 36.085938 L 14.261719 36.121094 L 14.996094 36.222656 C 15.9375 36.375 16.246094 36.71875 16.398438 37.675781 C 16.464844 38.121094 16.484375 38.425781 16.433594 38.375 C 16.382812 38.34375 16.175781 38.667969 15.972656 39.109375 C 14.878906 41.46875 12.742188 42.480469 11 41.453125 C 9.601562 40.632812 9.140625 38.460938 9.90625 36.273438 C 10.367188 34.972656 11.632812 33.144531 12.742188 32.1875 C 13.238281 31.742188 13.597656 31.316406 13.546875 31.230469 C 13.476562 31.128906 13.527344 31.109375 13.648438 31.179688 C 13.769531 31.265625 13.988281 31.195312 14.144531 31.058594 C 14.65625 30.632812 16.464844 29.761719 17.304688 29.554688 C 17.953125 29.402344 18.277344 29.402344 18.839844 29.574219 C 19.234375 29.710938 19.609375 29.792969 19.695312 29.777344 C 19.761719 29.761719 19.796875 29.792969 19.78125 29.863281 C 19.730469 30.070312 20.191406 30.941406 20.308594 30.871094 C 20.378906 30.820312 20.363281 31.574219 20.292969 32.53125 C 20.207031 33.792969 20.003906 34.804688 19.574219 36.207031 C 19.234375 37.28125 19.011719 38.238281 19.082031 38.324219 C 19.132812 38.425781 19.097656 38.460938 19.011719 38.410156 C 18.910156 38.34375 18.636719 38.835938 18.363281 39.625 C 18.089844 40.34375 17.628906 41.46875 17.304688 42.121094 C 16.722656 43.332031 16.570312 43.914062 16.996094 43.351562 C 17.132812 43.164062 17.253906 43.09375 17.253906 43.195312 C 17.253906 43.4375 16.824219 43.792969 16.6875 43.65625 C 16.601562 43.574219 15.714844 45.144531 15.714844 45.382812 C 15.714844 45.453125 15.972656 45.46875 16.277344 45.4375 C 16.757812 45.382812 16.894531 45.265625 17.390625 44.273438 C 17.695312 43.675781 17.902344 43.078125 17.851562 42.941406 C 17.816406 42.820312 17.832031 42.753906 17.917969 42.804688 C 18.003906 42.855469 18.484375 42 18.976562 40.90625 C 20.480469 37.640625 23.503906 33.078125 24.835938 32.050781 C 25.484375 31.554688 26.152344 31.503906 26.578125 31.914062 C 26.816406 32.152344 26.851562 32.425781 26.75 33.605469 C 26.628906 35.164062 25.863281 38.410156 25.28125 39.726562 C 25.09375 40.1875 24.972656 40.683594 25.023438 40.835938 C 25.074219 40.972656 25.074219 41.058594 25.023438 40.992188 C 24.855469 40.835938 23.027344 44.445312 23.128906 44.71875 C 23.179688 44.855469 23.367188 44.957031 23.539062 44.957031 C 23.914062 44.957031 24.308594 44.5625 24.121094 44.375 C 24.050781 44.308594 24.085938 44.273438 24.203125 44.308594 C 24.445312 44.375 25.503906 42.445312 25.367188 42.207031 C 25.296875 42.121094 25.332031 42.070312 25.433594 42.085938 C 25.519531 42.121094 26.082031 41.351562 26.683594 40.394531 C 28.390625 37.605469 29.875 35.605469 31.207031 34.273438 C 32.625 32.835938 33.464844 32.359375 34.007812 32.648438 C 34.316406 32.820312 34.351562 32.941406 34.25 33.554688 C 34.179688 33.949219 33.738281 35.109375 33.273438 36.136719 C 30.832031 41.503906 30.355469 43.640625 31.242188 45.179688 C 31.585938 45.777344 32.507812 46.289062 33.515625 46.410156 L 34.25 46.496094 L 33.410156 46.257812 C 32.078125 45.878906 31.636719 45.007812 31.824219 43.164062 C 31.960938 41.878906 32.984375 38.90625 34.199219 36.34375 C 35.648438 33.28125 35.734375 31.792969 34.472656 31.792969 C 32.847656 31.792969 30.746094 33.8125 27.296875 38.683594 C 26.75 39.453125 26.304688 40.1875 26.304688 40.324219 C 26.304688 40.855469 26.050781 40.289062 26.03125 39.691406 C 26.015625 39.351562 26.050781 39.214844 26.101562 39.402344 C 26.203125 39.828125 27.226562 36.53125 27.605469 34.582031 C 28.015625 32.375 27.621094 31.28125 26.441406 31.28125 C 25.808594 31.28125 24.683594 31.761719 24.152344 32.238281 C 23.589844 32.753906 22.105469 34.785156 21.371094 36.035156 C 20.035156 38.289062 19.847656 38.273438 20.617188 35.984375 C 20.992188 34.855469 21.078125 34.289062 21.078125 32.785156 C 21.097656 30.804688 20.960938 30.445312 19.933594 29.675781 C 19.335938 29.230469 17.664062 29.144531 16.449219 29.488281 Z M 12.042969 32.460938 C 11.992188 32.5625 11.855469 32.648438 11.753906 32.648438 C 11.648438 32.648438 11.648438 32.546875 11.785156 32.394531 C 12.027344 32.101562 12.230469 32.171875 12.042969 32.460938 Z M 20.789062 33.195312 C 20.738281 33.316406 20.703125 33.230469 20.703125 32.992188 C 20.703125 32.753906 20.738281 32.667969 20.789062 32.769531 C 20.824219 32.890625 20.824219 33.09375 20.789062 33.195312 Z M 10.984375 33.8125 C 10.726562 34.152344 10.453125 34.511719 10.367188 34.617188 C 10.113281 34.890625 10.417969 34.34375 10.863281 33.742188 C 11.085938 33.453125 11.207031 33.144531 11.136719 33.078125 C 11.070312 32.992188 11.121094 32.992188 11.238281 33.058594 C 11.394531 33.144531 11.324219 33.351562 10.984375 33.8125 Z M 34.675781 34.941406 C 34.675781 34.992188 34.609375 35.078125 34.503906 35.128906 C 34.417969 35.179688 34.335938 35.144531 34.335938 35.058594 C 34.335938 34.957031 34.417969 34.871094 34.503906 34.871094 C 34.609375 34.871094 34.675781 34.90625 34.675781 34.941406 Z M 34.230469 35.761719 C 34.078125 36 33.839844 35.726562 33.941406 35.453125 C 34.007812 35.246094 34.078125 35.230469 34.179688 35.402344 C 34.25 35.519531 34.265625 35.691406 34.230469 35.761719 Z M 33.257812 37.128906 C 33.207031 37.265625 33.15625 37.214844 33.15625 37.027344 C 33.136719 36.835938 33.191406 36.734375 33.242188 36.804688 C 33.292969 36.855469 33.308594 37.007812 33.257812 37.128906 Z M 19.59375 37.300781 C 19.542969 37.4375 19.492188 37.382812 19.492188 37.195312 C 19.472656 37.007812 19.523438 36.90625 19.574219 36.972656 C 19.625 37.027344 19.644531 37.179688 19.59375 37.300781 Z M 26.375 38.070312 C 25.964844 39.042969 25.742188 39.179688 26.082031 38.238281 C 26.238281 37.792969 26.441406 37.4375 26.511719 37.4375 C 26.578125 37.4375 26.511719 37.726562 26.375 38.070312 Z M 33.308594 37.847656 C 33.308594 37.878906 33.15625 37.949219 32.96875 38 C 32.78125 38.050781 32.660156 38.015625 32.730469 37.929688 C 32.8125 37.777344 33.308594 37.710938 33.308594 37.847656 Z M 19.285156 39.382812 C 19.4375 39.574219 19.4375 39.65625 19.285156 39.761719 C 19.148438 39.828125 19.132812 39.8125 19.199219 39.691406 C 19.269531 39.574219 19.234375 39.488281 19.148438 39.488281 C 19.046875 39.488281 18.960938 39.402344 18.960938 39.316406 C 18.960938 39.078125 19.046875 39.09375 19.285156 39.382812 Z M 18.328125 41.964844 C 18.277344 42.121094 18.191406 42.207031 18.15625 42.152344 C 18.105469 42.101562 18.125 42 18.191406 41.898438 C 18.347656 41.625 18.449219 41.675781 18.328125 41.964844 Z M 24.855469 42.890625 C 24.90625 42.972656 24.886719 43.09375 24.800781 43.144531 C 24.71875 43.195312 24.648438 43.128906 24.648438 42.992188 C 24.648438 42.699219 24.699219 42.667969 24.855469 42.890625 Z M 31.550781 43.964844 C 31.5 44.085938 31.464844 44 31.464844 43.761719 C 31.464844 43.519531 31.5 43.4375 31.550781 43.539062 C 31.585938 43.65625 31.585938 43.863281 31.550781 43.964844 Z M 23.847656 44.050781 C 23.8125 44.308594 23.691406 44.546875 23.554688 44.582031 C 23.402344 44.617188 23.386719 44.582031 23.488281 44.496094 C 23.589844 44.425781 23.660156 44.257812 23.675781 44.136719 C 23.710938 43.726562 23.742188 43.589844 23.8125 43.589844 C 23.863281 43.589844 23.863281 43.792969 23.847656 44.050781 Z M 16.332031 45.09375 C 16.074219 45.351562 16.074219 45.351562 16.261719 44.921875 C 16.382812 44.667969 16.519531 44.53125 16.550781 44.632812 C 16.585938 44.734375 16.484375 44.941406 16.332031 45.09375 Z M 31.34375 44.617188 C 31.394531 44.699219 31.363281 44.785156 31.277344 44.785156 C 31.175781 44.785156 31.089844 44.699219 31.089844 44.617188 C 31.089844 44.511719 31.121094 44.445312 31.15625 44.445312 C 31.207031 44.445312 31.292969 44.511719 31.34375 44.617188 Z M 31.34375 44.617188 "/>
<path style=" stroke:none;fill-rule:nonzero;fill:rgb(0%,0%,0%);fill-opacity:1;" d="M 50.492188 30.035156 C 50.355469 30.957031 50.375 32.460938 50.542969 33.230469 C 50.679688 33.8125 50.648438 33.964844 50.203125 34.582031 C 49.929688 34.972656 49.742188 35.382812 49.792969 35.503906 C 49.828125 35.640625 49.808594 35.710938 49.726562 35.640625 C 49.554688 35.554688 49.042969 36.769531 48.699219 38.050781 C 48.445312 39.007812 48.425781 41.46875 48.683594 42.375 C 49.128906 44.050781 50.273438 45.214844 52.03125 45.792969 C 54.695312 46.667969 57.804688 45.898438 59.835938 43.863281 C 60.179688 43.519531 60.488281 43.246094 60.539062 43.246094 C 60.589844 43.246094 60.640625 43.417969 60.675781 43.625 C 60.707031 43.878906 60.828125 44 61.015625 44 C 61.1875 43.984375 61.273438 44.035156 61.222656 44.121094 C 61.167969 44.207031 61.339844 44.273438 61.613281 44.273438 C 62.160156 44.273438 62.980469 43.589844 63.664062 42.546875 C 63.902344 42.1875 64.125 41.878906 64.160156 41.878906 C 64.175781 41.878906 64.160156 42.289062 64.109375 42.785156 C 64.003906 43.847656 64.277344 44.273438 65.082031 44.273438 C 65.441406 44.273438 65.730469 44.085938 66.15625 43.589844 C 66.738281 42.90625 67.816406 41.042969 67.816406 40.753906 C 67.816406 40.667969 67.542969 41.09375 67.214844 41.710938 C 66.875 42.324219 66.414062 43.007812 66.15625 43.246094 L 65.714844 43.675781 L 66.054688 43.164062 C 66.449219 42.597656 67.625 40.238281 67.984375 39.351562 C 68.207031 38.753906 68.53125 38.667969 69.265625 39.007812 C 69.847656 39.265625 69.8125 39.589844 69.011719 41.128906 C 68.242188 42.617188 68.121094 43.519531 68.632812 43.984375 C 69.148438 44.445312 69.777344 44.34375 70.429688 43.675781 C 70.820312 43.28125 71.109375 43.109375 71.300781 43.179688 C 71.453125 43.230469 71.574219 43.351562 71.574219 43.4375 C 71.574219 43.65625 71.265625 43.625 71.179688 43.367188 C 71.109375 43.230469 71.078125 43.265625 71.078125 43.4375 C 71.058594 43.863281 71.625 44.273438 72.222656 44.273438 C 72.632812 44.273438 72.9375 44.101562 73.453125 43.574219 C 73.808594 43.195312 74.167969 42.734375 74.21875 42.546875 C 74.375 42.070312 74.699219 42.136719 74.578125 42.632812 C 74.460938 43.09375 74.734375 43.929688 75.039062 44.136719 C 75.484375 44.425781 76.183594 44.257812 76.78125 43.742188 C 77.292969 43.28125 77.378906 43.265625 77.378906 43.539062 C 77.378906 44.015625 77.722656 44.273438 78.320312 44.273438 C 78.917969 44.273438 79.839844 43.488281 80.574219 42.34375 C 81 41.675781 81.324219 41.554688 80.984375 42.1875 C 80.746094 42.632812 80.746094 43.503906 80.96875 43.949219 C 81.085938 44.171875 81.324219 44.273438 81.734375 44.273438 C 82.199219 44.273438 82.417969 44.136719 82.828125 43.640625 C 83.1875 43.214844 83.359375 43.09375 83.359375 43.28125 C 83.359375 43.4375 83.273438 43.625 83.171875 43.691406 C 83.070312 43.742188 83.035156 43.949219 83.070312 44.136719 C 83.121094 44.324219 83.121094 44.425781 83.050781 44.375 C 82.964844 44.273438 81.652344 46.597656 81.652344 46.855469 C 81.652344 46.90625 81.769531 46.957031 81.90625 46.957031 C 82.078125 46.957031 82.144531 46.855469 82.078125 46.683594 C 81.992188 46.480469 82.027344 46.460938 82.164062 46.617188 C 82.316406 46.753906 82.316406 46.890625 82.179688 47.128906 C 82.078125 47.300781 81.992188 47.351562 81.992188 47.230469 C 81.992188 46.71875 81.394531 47.230469 80.882812 48.1875 C 80.265625 49.332031 80.335938 49.554688 81.242188 49.332031 C 81.703125 49.214844 82.265625 48.171875 82.0625 47.828125 C 81.992188 47.726562 82.007812 47.691406 82.113281 47.742188 C 82.214844 47.8125 82.332031 47.726562 82.386719 47.554688 C 82.4375 47.402344 82.777344 46.53125 83.152344 45.640625 C 83.613281 44.496094 83.886719 44.035156 84.058594 44.085938 C 84.863281 44.34375 85.921875 44.273438 86.570312 43.949219 C 87.953125 43.246094 89.335938 40.921875 89.335938 39.316406 C 89.335938 38.324219 89.03125 37.949219 88.246094 37.949219 C 87.578125 37.949219 86.707031 38.734375 85.785156 40.171875 C 85.441406 40.683594 85.152344 41.007812 85.101562 40.890625 C 85.066406 40.769531 85.136719 40.5625 85.238281 40.425781 C 85.359375 40.289062 85.492188 39.65625 85.546875 39.027344 C 85.613281 38 85.597656 37.898438 85.339844 38 C 85.167969 38.070312 84.878906 38.121094 84.675781 38.121094 C 84.332031 38.121094 84.296875 38.1875 84.351562 38.871094 C 84.402344 39.367188 84.296875 39.898438 84.058594 40.425781 C 83.632812 41.402344 83.613281 41.46875 83.957031 41.195312 C 84.351562 40.871094 84.265625 41.195312 83.71875 42.136719 C 83.070312 43.246094 82.402344 43.929688 81.992188 43.929688 C 81.257812 43.929688 81.753906 41.878906 82.933594 40 L 83.359375 39.316406 L 82.863281 39.316406 C 82.265625 39.316406 81.941406 39.605469 81.445312 40.582031 C 81.257812 40.957031 80.796875 41.710938 80.4375 42.257812 C 79.328125 43.878906 78.421875 44.359375 78.03125 43.503906 C 77.789062 42.972656 78.113281 42.050781 79.070312 40.597656 C 79.445312 40.035156 79.703125 39.503906 79.652344 39.417969 C 79.582031 39.332031 79.636719 39.316406 79.738281 39.382812 C 79.839844 39.4375 79.976562 39.402344 80.027344 39.316406 C 80.097656 39.214844 80.453125 38.890625 80.832031 38.617188 C 81.667969 38.015625 82.386719 37.964844 82.742188 38.496094 C 82.898438 38.699219 83.070312 38.804688 83.136719 38.734375 C 83.410156 38.480469 82.332031 37.777344 81.683594 37.777344 C 80.507812 37.777344 78.523438 38.992188 78.847656 39.503906 C 78.917969 39.625 78.902344 39.675781 78.796875 39.605469 C 78.558594 39.453125 78.167969 39.929688 78.335938 40.1875 C 78.40625 40.324219 78.386719 40.34375 78.269531 40.273438 C 78.011719 40.121094 77.601562 40.957031 77.363281 42.085938 C 77.140625 43.109375 76.492188 43.929688 75.894531 43.929688 C 75.089844 43.929688 75.195312 42.941406 76.183594 40.804688 C 76.476562 40.171875 76.664062 39.574219 76.59375 39.453125 C 76.527344 39.351562 76.542969 39.316406 76.644531 39.367188 C 76.75 39.4375 77.191406 38.769531 77.636719 37.898438 C 78.285156 36.648438 79.34375 34.785156 80.402344 32.941406 C 80.4375 32.871094 80.183594 32.820312 79.804688 32.820312 L 79.15625 32.820312 L 77.839844 35.488281 C 76.730469 37.726562 76.476562 38.136719 76.21875 38.015625 C 75.535156 37.726562 74.835938 37.761719 73.980469 38.121094 C 72.582031 38.734375 71.402344 40.359375 71.078125 42.171875 C 70.855469 43.367188 69.589844 44.445312 69.300781 43.675781 C 69.148438 43.316406 69.625 41.847656 70.394531 40.34375 C 71.332031 38.480469 71.316406 38.460938 69.8125 38.582031 C 68.753906 38.667969 68.53125 38.632812 68.445312 38.394531 C 68.394531 38.257812 68.394531 38.136719 68.464844 38.136719 C 68.839844 38.207031 69.027344 38.070312 69.265625 37.589844 C 69.640625 36.871094 69.539062 36.171875 69.042969 36.101562 C 68.839844 36.070312 68.632812 36.152344 68.601562 36.273438 C 68.566406 36.394531 68.445312 36.921875 68.328125 37.4375 C 68.003906 38.855469 67.214844 40.785156 66.429688 42.136719 C 66.039062 42.785156 65.714844 43.4375 65.695312 43.554688 C 65.644531 43.828125 65.234375 44.121094 65.046875 44 C 64.980469 43.949219 64.910156 43.625 64.910156 43.265625 C 64.910156 42.5625 65.320312 41.488281 66.125 40.152344 L 66.601562 39.316406 L 66.105469 39.316406 C 65.507812 39.316406 65.234375 39.574219 64.570312 40.820312 C 63.425781 42.972656 62.160156 44.222656 61.546875 43.828125 C 61.085938 43.539062 61.085938 42.992188 61.578125 41.929688 C 62.828125 39.195312 65.199219 37.332031 65.988281 38.480469 C 66.140625 38.667969 66.292969 38.753906 66.34375 38.667969 C 66.535156 38.359375 65.59375 37.777344 64.925781 37.777344 C 62.996094 37.777344 60.949219 39.914062 60.554688 42.34375 C 60.367188 43.539062 58.796875 44.753906 56.625 45.402344 C 55.515625 45.726562 51.824219 45.761719 52.03125 45.453125 C 52.066406 45.382812 51.878906 45.246094 51.605469 45.128906 C 50.953125 44.871094 50.117188 43.984375 49.808594 43.214844 C 49.417969 42.273438 49.453125 39.863281 49.894531 38.289062 C 50.425781 36.375 50.886719 35.402344 51.246094 35.4375 C 51.417969 35.4375 51.519531 35.539062 51.46875 35.65625 C 51.363281 35.929688 52.355469 37.042969 53.140625 37.539062 C 54.269531 38.238281 55.550781 38.511719 57.464844 38.425781 C 59.308594 38.34375 60.964844 37.828125 60.707031 37.417969 C 60.625 37.28125 60.65625 37.265625 60.792969 37.351562 C 61.085938 37.519531 62.109375 36.53125 62.554688 35.65625 C 63.03125 34.699219 63.152344 33.332031 62.792969 32.425781 C 62.46875 31.554688 61.613281 30.667969 61.304688 30.855469 C 61.1875 30.941406 61.136719 30.921875 61.203125 30.820312 C 61.578125 30.222656 57.839844 29.691406 56.046875 30.085938 C 55.039062 30.308594 53.226562 31.144531 53.023438 31.46875 C 52.953125 31.605469 52.96875 31.625 53.089844 31.554688 C 53.210938 31.488281 53.296875 31.519531 53.296875 31.625 C 53.296875 31.742188 53.175781 31.777344 53.003906 31.726562 C 52.664062 31.589844 51.535156 32.597656 51.707031 32.890625 C 51.757812 32.992188 51.742188 33.027344 51.671875 32.941406 C 51.585938 32.871094 51.363281 32.972656 51.175781 33.144531 L 50.816406 33.488281 L 50.816406 31.453125 C 50.816406 29.382812 50.699219 28.855469 50.492188 30.035156 Z M 59.699219 30.617188 C 60.058594 30.71875 60.625 30.992188 60.949219 31.195312 C 61.273438 31.417969 61.632812 31.554688 61.75 31.519531 C 61.871094 31.46875 62.023438 31.503906 62.09375 31.605469 C 62.144531 31.726562 62.09375 31.742188 61.9375 31.691406 C 61.578125 31.554688 61.597656 31.675781 62.007812 32.34375 C 62.503906 33.144531 62.46875 34.425781 61.921875 35.488281 C 61.410156 36.480469 61.410156 36.53125 61.785156 36.222656 C 62.023438 36.015625 62.023438 36.050781 61.765625 36.445312 C 61.410156 36.992188 61.289062 37.058594 61.441406 36.617188 C 61.546875 36.359375 61.527344 36.359375 61.273438 36.5625 C 61.117188 36.683594 61.03125 36.871094 61.101562 36.972656 C 61.152344 37.058594 61.136719 37.09375 61.03125 37.042969 C 60.949219 36.992188 60.605469 37.109375 60.28125 37.332031 C 59.121094 38.121094 57.515625 38.410156 55.789062 38.121094 C 54.40625 37.898438 53.550781 37.503906 52.628906 36.617188 C 52.234375 36.257812 51.894531 35.984375 51.84375 36.015625 C 51.792969 36.035156 51.792969 36.015625 51.84375 35.964844 C 51.878906 35.898438 51.808594 35.640625 51.671875 35.367188 C 51.535156 35.109375 51.417969 34.820312 51.417969 34.734375 C 51.417969 34.460938 53.277344 32.511719 54.167969 31.863281 C 55.941406 30.5625 57.90625 30.121094 59.699219 30.617188 Z M 54.097656 31.382812 C 54.046875 31.4375 53.894531 31.453125 53.773438 31.402344 C 53.636719 31.351562 53.6875 31.300781 53.875 31.300781 C 54.0625 31.28125 54.167969 31.332031 54.097656 31.382812 Z M 62.691406 32.699219 C 62.691406 32.785156 62.621094 32.785156 62.519531 32.734375 C 62.433594 32.683594 62.347656 32.496094 62.347656 32.34375 C 62.347656 32.085938 62.382812 32.085938 62.519531 32.308594 C 62.605469 32.445312 62.691406 32.632812 62.691406 32.699219 Z M 52.355469 33.164062 C 52.183594 33.351562 51.960938 33.503906 51.859375 33.503906 C 51.757812 33.503906 51.792969 33.417969 51.929688 33.332031 C 52.066406 33.246094 52.203125 33.078125 52.203125 32.957031 C 52.21875 32.835938 52.234375 32.667969 52.253906 32.5625 C 52.253906 32.480469 52.355469 32.496094 52.476562 32.617188 C 52.628906 32.769531 52.59375 32.890625 52.355469 33.164062 Z M 80.046875 33.144531 C 79.992188 33.230469 79.753906 33.332031 79.5 33.382812 C 79.003906 33.46875 79.15625 33.230469 79.6875 33.109375 C 79.875 33.058594 80.046875 33.027344 80.078125 33.007812 C 80.113281 33.007812 80.097656 33.058594 80.046875 33.144531 Z M 79.257812 33.742188 C 79.257812 33.777344 79.121094 33.914062 78.96875 34.035156 C 78.695312 34.257812 78.679688 34.238281 78.902344 33.964844 C 79.121094 33.691406 79.257812 33.605469 79.257812 33.742188 Z M 49.878906 36.480469 C 49.878906 36.617188 49.929688 36.871094 49.980469 37.042969 C 50.066406 37.246094 50.050781 37.300781 49.929688 37.179688 C 49.65625 36.921875 49.484375 36.238281 49.691406 36.238281 C 49.792969 36.238281 49.878906 36.34375 49.878906 36.480469 Z M 69.214844 36.71875 C 69.042969 36.769531 69.042969 36.835938 69.214844 37.058594 C 69.421875 37.28125 69.402344 37.300781 69.078125 37.09375 C 68.789062 36.921875 68.753906 36.820312 68.90625 36.648438 C 69.011719 36.546875 69.164062 36.496094 69.265625 36.546875 C 69.351562 36.597656 69.335938 36.667969 69.214844 36.71875 Z M 76.285156 38.582031 C 75.980469 39.367188 73.945312 42.5625 73.347656 43.195312 C 72.683594 43.898438 71.914062 44.1875 71.914062 43.710938 C 71.914062 43.554688 71.863281 43.574219 71.761719 43.742188 C 71.675781 43.878906 71.640625 43.65625 71.691406 43.144531 C 71.792969 42.257812 72.171875 41.382812 72.957031 40.238281 C 73.28125 39.777344 73.382812 39.46875 73.261719 39.332031 C 73.160156 39.195312 73.160156 39.195312 73.296875 39.300781 C 73.433594 39.417969 73.742188 39.28125 74.21875 38.890625 C 74.597656 38.5625 75.109375 38.238281 75.347656 38.152344 C 75.859375 37.949219 76.421875 38.207031 76.285156 38.582031 Z M 74.390625 38.289062 C 74.339844 38.375 74.152344 38.460938 74 38.445312 C 73.757812 38.445312 73.777344 38.410156 74.050781 38.289062 C 74.511719 38.101562 74.511719 38.101562 74.390625 38.289062 Z M 80.96875 38.222656 C 80.96875 38.359375 80.644531 38.445312 80.558594 38.324219 C 80.507812 38.238281 80.574219 38.171875 80.710938 38.171875 C 80.847656 38.171875 80.96875 38.207031 80.96875 38.222656 Z M 88.484375 38.496094 C 88.484375 38.582031 88.550781 38.617188 88.636719 38.5625 C 88.910156 38.394531 88.484375 40.035156 88.039062 40.855469 C 87.800781 41.300781 87.238281 42.070312 86.808594 42.582031 C 86.347656 43.109375 86.023438 43.625 86.039062 43.828125 C 86.058594 44.101562 86.039062 44.121094 85.988281 43.878906 C 85.871094 43.519531 85.835938 43.519531 85.324219 43.863281 C 84.878906 44.152344 84.042969 44.070312 84.042969 43.742188 C 84.042969 43.09375 86.773438 38.90625 87.492188 38.460938 C 88.003906 38.152344 88.484375 38.171875 88.484375 38.496094 Z M 63.628906 38.460938 C 63.578125 38.546875 63.425781 38.632812 63.320312 38.632812 C 63.203125 38.632812 63.21875 38.5625 63.375 38.460938 C 63.699219 38.257812 63.765625 38.257812 63.628906 38.460938 Z M 80.453125 38.648438 C 80.453125 38.734375 80.316406 38.804688 80.164062 38.785156 C 79.976562 38.785156 79.941406 38.734375 80.078125 38.683594 C 80.183594 38.648438 80.234375 38.511719 80.183594 38.425781 C 80.113281 38.308594 80.148438 38.289062 80.25 38.359375 C 80.371094 38.425781 80.453125 38.546875 80.453125 38.648438 Z M 73.964844 38.734375 C 73.964844 38.871094 73.640625 38.957031 73.554688 38.835938 C 73.503906 38.753906 73.570312 38.683594 73.707031 38.683594 C 73.84375 38.683594 73.964844 38.71875 73.964844 38.734375 Z M 79.601562 38.972656 C 79.5 39.164062 79.378906 39.316406 79.328125 39.316406 C 79.292969 39.316406 79.328125 39.164062 79.429688 38.972656 C 79.53125 38.785156 79.652344 38.632812 79.703125 38.632812 C 79.738281 38.632812 79.703125 38.785156 79.601562 38.972656 Z M 76.867188 39.058594 C 76.867188 39.078125 76.714844 39.144531 76.542969 39.195312 C 76.320312 39.246094 76.234375 39.214844 76.304688 39.042969 C 76.371094 38.871094 76.867188 38.871094 76.867188 39.058594 Z M 70.71875 39.316406 C 70.71875 39.402344 70.683594 39.488281 70.648438 39.488281 C 70.597656 39.488281 70.511719 39.402344 70.460938 39.316406 C 70.410156 39.214844 70.445312 39.144531 70.53125 39.144531 C 70.632812 39.144531 70.71875 39.214844 70.71875 39.316406 Z M 65.542969 39.914062 C 65.542969 40.050781 65.472656 40.121094 65.390625 40.070312 C 65.304688 40.015625 65.285156 39.898438 65.335938 39.8125 C 65.492188 39.589844 65.542969 39.625 65.542969 39.914062 Z M 72.390625 40 C 72.273438 40.171875 72.152344 40.289062 72.101562 40.257812 C 72.035156 40.1875 72.410156 39.65625 72.527344 39.65625 C 72.5625 39.65625 72.511719 39.8125 72.390625 40 Z M 84.894531 40.425781 C 84.894531 40.511719 84.8125 40.480469 84.726562 40.34375 C 84.640625 40.207031 84.554688 40 84.554688 39.914062 C 84.554688 39.8125 84.640625 39.863281 84.726562 40 C 84.8125 40.136719 84.894531 40.324219 84.894531 40.425781 Z M 62.007812 40.257812 C 62.125 40.410156 62.144531 40.511719 62.039062 40.511719 C 61.957031 40.511719 61.835938 40.394531 61.765625 40.257812 C 61.714844 40.121094 61.699219 40 61.734375 40 C 61.765625 40 61.886719 40.121094 62.007812 40.257812 Z M 88.722656 40.445312 C 88.773438 40.582031 88.757812 40.648438 88.652344 40.597656 C 88.550781 40.546875 88.484375 40.425781 88.484375 40.324219 C 88.484375 40.085938 88.601562 40.136719 88.722656 40.445312 Z M 69.761719 40.785156 C 69.8125 40.921875 69.796875 40.992188 69.695312 40.941406 C 69.589844 40.890625 69.523438 40.769531 69.523438 40.667969 C 69.523438 40.425781 69.640625 40.480469 69.761719 40.785156 Z M 88.6875 41.230469 C 88.570312 41.351562 88.484375 41.367188 88.484375 41.265625 C 88.484375 41.027344 88.6875 40.820312 88.808594 40.941406 C 88.84375 40.992188 88.789062 41.128906 88.6875 41.230469 Z M 78.234375 41.625 C 78.234375 41.710938 78.148438 41.675781 78.0625 41.539062 C 77.976562 41.402344 77.894531 41.195312 77.894531 41.109375 C 77.894531 41.007812 77.976562 41.058594 78.0625 41.195312 C 78.148438 41.332031 78.234375 41.519531 78.234375 41.625 Z M 65.183594 41.382812 C 65.234375 41.488281 65.199219 41.65625 65.082031 41.761719 C 64.910156 41.914062 64.894531 41.914062 64.980469 41.742188 C 65.046875 41.640625 65.011719 41.539062 64.925781 41.539062 C 64.824219 41.539062 64.738281 41.453125 64.738281 41.367188 C 64.738281 41.144531 65.03125 41.144531 65.183594 41.382812 Z M 71.792969 41.691406 C 71.726562 41.742188 71.605469 41.863281 71.539062 41.949219 C 71.46875 42.015625 71.4375 41.929688 71.453125 41.742188 C 71.46875 41.539062 71.554688 41.4375 71.710938 41.488281 C 71.828125 41.539062 71.878906 41.640625 71.792969 41.691406 Z M 61.324219 41.898438 C 61.203125 42.085938 61.085938 42.207031 61.03125 42.152344 C 60.980469 42.101562 61.03125 41.949219 61.152344 41.792969 C 61.460938 41.4375 61.546875 41.46875 61.324219 41.898438 Z M 69.351562 41.898438 C 69.351562 42 69.285156 42.015625 69.179688 41.964844 C 69.09375 41.914062 69.011719 41.777344 69.011719 41.691406 C 69.011719 41.589844 69.09375 41.574219 69.179688 41.625 C 69.285156 41.675781 69.351562 41.8125 69.351562 41.898438 Z M 69.011719 42.308594 C 69.011719 42.445312 68.976562 42.5625 68.941406 42.5625 C 68.90625 42.5625 68.839844 42.445312 68.769531 42.308594 C 68.71875 42.171875 68.753906 42.050781 68.839844 42.050781 C 68.941406 42.050781 69.011719 42.171875 69.011719 42.308594 Z M 87.628906 42.394531 C 87.628906 42.480469 87.59375 42.5625 87.5625 42.5625 C 87.507812 42.5625 87.425781 42.480469 87.375 42.394531 C 87.320312 42.289062 87.355469 42.222656 87.441406 42.222656 C 87.542969 42.222656 87.628906 42.289062 87.628906 42.394531 Z M 87.289062 42.632812 C 87.289062 42.667969 87.167969 42.785156 87.03125 42.90625 C 86.808594 43.09375 86.792969 43.078125 86.878906 42.835938 C 86.964844 42.597656 87.289062 42.445312 87.289062 42.632812 Z M 81.085938 43.28125 C 81.035156 43.402344 81 43.316406 81 43.078125 C 81 42.835938 81.035156 42.753906 81.085938 42.855469 C 81.121094 42.972656 81.121094 43.179688 81.085938 43.28125 Z M 75.109375 43.265625 C 75.140625 43.539062 75.089844 43.589844 74.953125 43.453125 C 74.871094 43.367188 74.835938 43.195312 74.886719 43.09375 C 75.058594 42.835938 75.089844 42.855469 75.109375 43.265625 Z M 86.773438 43.605469 C 86.773438 43.691406 86.707031 43.761719 86.636719 43.761719 C 86.554688 43.761719 86.484375 43.640625 86.484375 43.503906 C 86.484375 43.367188 86.554688 43.300781 86.636719 43.351562 C 86.707031 43.402344 86.773438 43.503906 86.773438 43.605469 Z M 69.09375 43.761719 C 69.148438 43.847656 69.113281 43.929688 69.027344 43.929688 C 68.925781 43.929688 68.839844 43.847656 68.839844 43.761719 C 68.839844 43.65625 68.875 43.589844 68.90625 43.589844 C 68.957031 43.589844 69.042969 43.65625 69.09375 43.761719 Z M 50.050781 44.136719 C 50.050781 44.238281 49.945312 44.222656 49.792969 44.101562 C 49.65625 43.984375 49.535156 43.863281 49.535156 43.828125 C 49.535156 43.792969 49.65625 43.8125 49.792969 43.863281 C 49.929688 43.929688 50.050781 44.050781 50.050781 44.136719 Z M 83.324219 44.804688 C 83.289062 44.90625 83.207031 44.972656 83.121094 44.957031 C 83.035156 44.941406 82.898438 45.027344 82.8125 45.164062 C 82.675781 45.332031 82.660156 45.332031 82.726562 45.128906 C 82.761719 44.992188 82.898438 44.890625 83 44.90625 C 83.101562 44.941406 83.1875 44.871094 83.1875 44.785156 C 83.1875 44.683594 83.238281 44.617188 83.289062 44.617188 C 83.339844 44.617188 83.359375 44.699219 83.324219 44.804688 Z M 82.675781 45.640625 C 82.675781 45.726562 82.589844 45.8125 82.488281 45.8125 C 82.402344 45.8125 82.367188 45.726562 82.417969 45.640625 C 82.46875 45.539062 82.554688 45.46875 82.605469 45.46875 C 82.640625 45.46875 82.675781 45.539062 82.675781 45.640625 Z M 82.675781 46.152344 C 82.675781 46.238281 82.640625 46.324219 82.605469 46.324219 C 82.554688 46.324219 82.46875 46.238281 82.417969 46.152344 C 82.367188 46.050781 82.402344 45.984375 82.488281 45.984375 C 82.589844 45.984375 82.675781 46.050781 82.675781 46.152344 Z M 82.675781 46.152344 "/>
<path style=" stroke:none;fill-rule:nonzero;fill:rgb(0%,0%,0%);fill-opacity:1;" d="M 82.675781 35.46875 C 82.25 35.792969 81.925781 36.136719 81.941406 36.222656 C 81.976562 36.324219 81.890625 36.359375 81.769531 36.308594 C 81.652344 36.273438 81.394531 36.394531 81.222656 36.582031 C 80.898438 36.921875 80.917969 36.941406 81.242188 36.820312 C 82.605469 36.324219 84.382812 35.367188 84.382812 35.144531 C 84.382812 34.683594 83.496094 34.855469 82.675781 35.46875 Z M 83.1875 35.625 C 83.1875 35.65625 83.070312 35.742188 82.914062 35.792969 C 82.777344 35.847656 82.710938 35.828125 82.761719 35.726562 C 82.863281 35.554688 83.1875 35.488281 83.1875 35.625 Z M 83.1875 35.625 "/>
<path style=" stroke:none;fill-rule:nonzero;fill:rgb(0%,0%,0%);fill-opacity:1;" d="M 91.25 36.101562 C 90.703125 36.648438 91.269531 37.453125 92.003906 37.109375 C 92.601562 36.835938 92.53125 36 91.898438 35.929688 C 91.660156 35.898438 91.371094 35.984375 91.25 36.101562 Z M 91.625 36.855469 C 91.675781 36.992188 91.660156 37.058594 91.558594 37.007812 C 91.457031 36.957031 91.386719 36.835938 91.386719 36.734375 C 91.386719 36.496094 91.507812 36.546875 91.625 36.855469 Z M 91.625 36.855469 "/>
<path style=" stroke:none;fill-rule:nonzero;fill:rgb(0%,0%,0%);fill-opacity:1;" d="M 36.078125 38.121094 C 35.597656 38.34375 35.375 38.53125 35.460938 38.648438 C 35.53125 38.769531 35.511719 38.804688 35.394531 38.734375 C 35.289062 38.683594 34.949219 38.957031 34.609375 39.351562 C 33.480469 40.648438 32.96875 42.855469 33.566406 43.710938 C 33.71875 43.914062 34.09375 44.152344 34.417969 44.257812 C 35.375 44.511719 36.265625 44.207031 37.238281 43.246094 C 37.289062 43.195312 37.441406 43.144531 37.578125 43.109375 C 37.75 43.09375 37.734375 43.144531 37.511719 43.332031 C 37.1875 43.574219 37.1875 43.589844 37.496094 43.929688 C 38.144531 44.648438 39.253906 44.207031 40.246094 42.820312 C 40.550781 42.375 40.859375 41.964844 40.894531 41.929688 C 40.945312 41.878906 40.929688 42.257812 40.875 42.769531 C 40.773438 43.792969 41.046875 44.273438 41.730469 44.273438 C 42.566406 44.273438 43.371094 43.453125 44.226562 41.742188 C 44.90625 40.375 44.769531 40.359375 44.035156 41.742188 C 43.300781 43.144531 42.5 43.984375 41.988281 43.898438 C 41.628906 43.847656 41.59375 43.761719 41.628906 42.992188 C 41.695312 41.691406 41.746094 41.382812 41.917969 41.503906 C 42.003906 41.554688 42.019531 41.46875 41.96875 41.300781 C 41.902344 41.144531 41.917969 41.042969 41.988281 41.09375 C 42.191406 41.214844 43.25 38.992188 43.113281 38.769531 C 43.046875 38.667969 43.0625 38.632812 43.164062 38.683594 C 43.269531 38.753906 43.472656 38.617188 43.625 38.375 C 43.898438 37.949219 43.898438 37.949219 43.4375 37.949219 C 43.164062 37.949219 42.875 38.015625 42.773438 38.085938 C 42.6875 38.152344 42.15625 39.042969 41.609375 40.085938 C 40.519531 42.136719 39.476562 43.640625 38.929688 43.929688 C 38.449219 44.207031 38.09375 43.863281 38.09375 43.164062 C 38.09375 42.597656 39.40625 39.742188 40.210938 38.582031 L 40.65625 37.929688 L 40.023438 37.984375 C 39.59375 38.015625 39.390625 38.121094 39.425781 38.257812 C 39.441406 38.394531 39.390625 38.445312 39.304688 38.375 C 39.117188 38.273438 37.714844 40.90625 37.769531 41.246094 C 37.835938 41.675781 37.085938 43.027344 36.488281 43.554688 C 35.359375 44.546875 34.164062 44.152344 34.164062 42.785156 C 34.164062 41.8125 34.417969 41.417969 35.136719 41.316406 C 36.109375 41.164062 37.339844 40.308594 37.75 39.503906 C 38.160156 38.683594 38.175781 38.394531 37.820312 38.050781 C 37.476562 37.691406 36.964844 37.710938 36.078125 38.121094 Z M 37.699219 38.753906 C 37.648438 39.058594 37.441406 39.554688 37.238281 39.828125 C 36.8125 40.425781 35.324219 41.246094 34.828125 41.164062 C 34.523438 41.109375 34.523438 41.078125 34.933594 40.480469 C 35.394531 39.792969 35.445312 39.65625 35.222656 39.65625 C 34.898438 39.65625 34.335938 40.308594 34.4375 40.5625 C 34.488281 40.699219 34.4375 40.871094 34.351562 40.941406 C 34.25 40.992188 34.199219 41.128906 34.25 41.214844 C 34.316406 41.300781 34.265625 41.367188 34.179688 41.367188 C 33.941406 41.367188 33.941406 41.078125 34.164062 40.941406 C 34.265625 40.871094 34.300781 40.683594 34.25 40.511719 C 34.128906 40.152344 34.949219 39.417969 35.289062 39.554688 C 35.410156 39.605469 35.683594 39.4375 35.90625 39.179688 C 37 37.898438 37.871094 37.675781 37.699219 38.753906 Z M 39.050781 39.949219 C 38.980469 40.015625 38.84375 39.964844 38.722656 39.828125 C 38.570312 39.65625 38.570312 39.640625 38.742188 39.726562 C 38.859375 39.792969 38.945312 39.761719 38.964844 39.625 C 38.964844 39.4375 38.996094 39.4375 39.066406 39.625 C 39.117188 39.742188 39.101562 39.898438 39.050781 39.949219 Z M 42.398438 40.152344 C 42.328125 40.34375 42.277344 40.324219 42.175781 40.070312 C 41.96875 39.574219 42.003906 39.453125 42.261719 39.691406 C 42.378906 39.8125 42.449219 40.015625 42.398438 40.152344 Z M 38.007812 43.929688 C 38.058594 44.035156 37.988281 44.050781 37.851562 44 C 37.546875 43.878906 37.496094 43.761719 37.734375 43.761719 C 37.835938 43.761719 37.957031 43.828125 38.007812 43.929688 Z M 38.007812 43.929688 "/>
<path style=" stroke:none;fill-rule:nonzero;fill:rgb(0%,0%,0%);fill-opacity:1;" d="M 94.992188 38.101562 C 94.871094 38.1875 94.804688 38.324219 94.871094 38.425781 C 94.921875 38.53125 94.90625 38.648438 94.820312 38.699219 C 94.734375 38.769531 94.597656 38.71875 94.53125 38.617188 C 94.445312 38.480469 94.480469 38.460938 94.632812 38.546875 C 94.785156 38.632812 94.820312 38.617188 94.734375 38.496094 C 94.394531 37.929688 92.445312 40.085938 92.683594 40.785156 C 92.753906 41.007812 92.738281 41.042969 92.632812 40.890625 C 92.429688 40.617188 92.121094 41.246094 91.96875 42.222656 C 91.882812 42.71875 91.675781 43.078125 91.199219 43.503906 C 90.480469 44.136719 90.207031 44.222656 89.882812 43.898438 C 89.542969 43.554688 89.644531 43.144531 90.6875 40.683594 C 91.234375 39.367188 91.644531 38.257812 91.59375 38.207031 C 91.40625 38.015625 90.859375 38.121094 90.976562 38.324219 C 91.078125 38.496094 91.046875 38.496094 90.859375 38.324219 C 90.550781 38.035156 90.3125 38.070312 90.429688 38.375 C 90.480469 38.53125 90.175781 39.519531 89.765625 40.617188 C 88.910156 42.820312 88.84375 43.4375 89.335938 43.929688 C 89.832031 44.425781 90.585938 44.359375 91.269531 43.761719 C 91.917969 43.195312 92.070312 43.144531 92.070312 43.46875 C 92.070312 44.1875 93.285156 44.496094 94.1875 44.015625 C 94.597656 43.792969 94.785156 43.777344 95.179688 43.949219 C 95.4375 44.050781 95.878906 44.101562 96.171875 44.070312 C 96.445312 44.015625 96.683594 44.050781 96.683594 44.121094 C 96.683594 44.257812 94.648438 45.792969 93.523438 46.511719 C 92.15625 47.382812 89.492188 48.273438 85.492188 49.179688 C 83.460938 49.640625 83.410156 49.640625 76.269531 49.675781 C 68.480469 49.691406 67.351562 49.792969 64.484375 50.632812 C 62.296875 51.28125 60.433594 52.207031 58.503906 53.589844 C 55.226562 55.949219 53.671875 57.675781 52.269531 60.597656 C 51.296875 62.582031 51.210938 62.957031 51.636719 63.042969 C 51.859375 63.09375 51.980469 62.972656 52.066406 62.699219 C 52.304688 61.742188 53.703125 59.300781 54.730469 58.035156 C 56.027344 56.425781 57.207031 55.453125 59.648438 53.949219 C 62.246094 52.359375 62.964844 52.035156 64.84375 51.554688 C 67.867188 50.785156 68.601562 50.734375 75.160156 50.753906 C 82.300781 50.769531 83.820312 50.667969 87.082031 49.847656 C 91.457031 48.734375 92.617188 48.257812 95.027344 46.617188 C 96.664062 45.503906 97.828125 44.324219 98.578125 42.992188 C 99.058594 42.152344 99.246094 40.972656 98.921875 40.769531 C 98.734375 40.667969 98.1875 41.675781 98.304688 41.878906 C 98.355469 41.949219 98.269531 42.070312 98.117188 42.121094 C 97.964844 42.171875 97.878906 42.34375 97.945312 42.480469 C 97.996094 42.617188 97.945312 42.769531 97.84375 42.835938 C 97.726562 42.921875 97.707031 42.871094 97.792969 42.71875 C 97.894531 42.53125 97.878906 42.53125 97.726562 42.667969 C 97.605469 42.769531 97.484375 43.007812 97.46875 43.179688 C 97.433594 43.367188 97.316406 43.503906 97.179688 43.503906 C 97.042969 43.519531 96.957031 43.589844 96.972656 43.675781 C 97.023438 43.964844 95.554688 43.964844 95.316406 43.691406 C 95.144531 43.46875 95.214844 43.316406 95.707031 42.734375 C 96.835938 41.417969 97.367188 39.195312 96.75 38.324219 C 96.476562 37.929688 95.46875 37.792969 94.992188 38.101562 Z M 96.476562 38.496094 C 96.851562 38.871094 96.714844 40.171875 96.152344 41.402344 C 95.640625 42.496094 95.230469 42.941406 95.351562 42.273438 C 95.417969 41.878906 94.804688 41.761719 94.53125 42.136719 C 94.375 42.324219 94.375 42.582031 94.480469 42.957031 C 94.566406 43.265625 94.632812 43.519531 94.632812 43.539062 C 94.632812 43.625 93.625 44.101562 93.453125 44.101562 C 93.351562 44.101562 93.148438 43.914062 92.992188 43.65625 C 92.71875 43.265625 92.71875 43.164062 92.976562 42.222656 C 93.128906 41.675781 93.214844 41.078125 93.164062 40.90625 C 93.078125 40.648438 93.09375 40.648438 93.25 40.855469 C 93.386719 41.058594 93.4375 41.042969 93.539062 40.769531 C 93.609375 40.582031 93.847656 40.1875 94.085938 39.878906 C 94.480469 39.351562 94.480469 38.835938 94.085938 39.078125 C 93.964844 39.164062 93.949219 39.109375 94.035156 38.992188 C 94.121094 38.835938 94.207031 38.820312 94.34375 38.957031 C 94.460938 39.078125 94.699219 38.992188 95.128906 38.699219 C 95.8125 38.238281 96.171875 38.1875 96.476562 38.496094 Z M 90.925781 39.574219 C 90.875 39.726562 90.789062 39.8125 90.753906 39.761719 C 90.703125 39.710938 90.722656 39.605469 90.789062 39.503906 C 90.941406 39.230469 91.046875 39.28125 90.925781 39.574219 Z M 90.070312 40.769531 C 90.019531 40.921875 89.933594 41.007812 89.902344 40.957031 C 89.851562 40.90625 89.867188 40.804688 89.933594 40.699219 C 90.089844 40.425781 90.191406 40.480469 90.070312 40.769531 Z M 92.257812 42.617188 C 92.085938 42.769531 92.070312 42.753906 92.171875 42.511719 C 92.222656 42.34375 92.328125 42.257812 92.378906 42.308594 C 92.429688 42.359375 92.378906 42.496094 92.257812 42.617188 Z M 92.257812 42.617188 "/>
</g>
</svg>
